<?xml version="1.0" encoding="utf-8"?>
<!-- Generator: Adobe Illustrator 16.0.0, SVG Export Plug-In . SVG Version: 6.00 Build 0)  -->
<!DOCTYPE svg PUBLIC "-//W3C//DTD SVG 1.1//EN" "http://www.w3.org/Graphics/SVG/1.1/DTD/svg11.dtd">
<svg version="1.1" id="Layer_1" xmlns="http://www.w3.org/2000/svg" xmlns:xlink="http://www.w3.org/1999/xlink" x="0px" y="0px"
	 width="737.721px" height="81.333px" viewBox="0 0 737.721 81.333" enable-background="new 0 0 737.721 81.333"
	 xml:space="preserve">
<g>
	<rect x="55.5" y="8.833" fill="#009245" stroke="#009245" stroke-miterlimit="10" width="5" height="87"/>
	<rect x="115.5" y="7.833" fill="#009245" stroke="#009245" stroke-miterlimit="10" width="5" height="87"/>
	<rect x="176.5" y="9.833" fill="#009245" stroke="#009245" stroke-miterlimit="10" width="5" height="87"/>
	<rect x="236.5" y="10.833" fill="#009245" stroke="#009245" stroke-miterlimit="10" width="5" height="87"/>
	<rect x="297.5" y="12.833" fill="#009245" stroke="#009245" stroke-miterlimit="10" width="5" height="87"/>
	<rect x="302.5" y="12.833" fill="#009245" stroke="#009245" stroke-miterlimit="10" width="5" height="87"/>
	<rect x="307.5" y="12.833" fill="#009245" stroke="#009245" stroke-miterlimit="10" width="5" height="87"/>
	<rect x="312.5" y="12.833" fill="#009245" stroke="#009245" stroke-miterlimit="10" width="5" height="87"/>
	<rect x="373.5" y="12.833" fill="#009245" stroke="#009245" stroke-miterlimit="10" width="5" height="87"/>
	<rect x="433.5" y="12.833" fill="#009245" stroke="#009245" stroke-miterlimit="10" width="5" height="87"/>
	<rect x="494.5" y="11.833" fill="#009245" stroke="#009245" stroke-miterlimit="10" width="5" height="87"/>
	<rect x="554.5" y="12.833" fill="#009245" stroke="#009245" stroke-miterlimit="10" width="5" height="87"/>
	<rect x="615.5" y="12.833" fill="#009245" stroke="#009245" stroke-miterlimit="10" width="5" height="87"/>
</g>
<g>
	<line fill="none" stroke="#009245" stroke-miterlimit="10" x1="0" y1="21.833" x2="803" y2="21.833"/>
	<line fill="none" stroke="#009245" stroke-miterlimit="10" x1="0" y1="75.833" x2="800" y2="75.833"/>
</g>
<g>
	<g>
		<rect x="677.674" y="5.345" fill="none" width="60.047" height="26.807"/>
		<text transform="matrix(1 0 0 1 677.6738 27.5205)" font-family="'SitkaBanner'" font-size="33">beta</text>
	</g>
	<g>
		<g>
			<circle cx="29.401" cy="48.788" r="27.273"/>
			<rect x="17.364" y="35.606" fill="none" width="23.047" height="36.363"/>
			<text transform="matrix(1 0 0 1 17.3638 62.4858)" fill="#FFFFFF" font-family="'SitkaBanner'" font-size="40">R</text>
		</g>
		<g>
			<circle cx="89.401" cy="48.788" r="27.273"/>
			<rect x="77.968" y="35.151" fill="none" width="23.047" height="36.364"/>
			<text transform="matrix(1 0 0 1 77.9683 62.0308)" fill="#FFFFFF" font-family="'SitkaBanner'" font-size="40">E</text>
		</g>
		<g>
			<circle cx="150.401" cy="48.788" r="27.273"/>
			<rect x="137.968" y="35.151" fill="none" width="23.047" height="36.364"/>
			<text transform="matrix(1 0 0 1 137.9683 62.0308)" fill="#FFFFFF" font-family="'SitkaBanner'" font-size="40">T</text>
		</g>
		<g>
			<circle cx="210.401" cy="48.788" r="27.273"/>
			<rect x="197.968" y="35.151" fill="none" width="23.047" height="36.364"/>
			<text transform="matrix(1 0 0 1 197.9683 62.0308)" fill="#FFFFFF" font-family="'SitkaBanner'" font-size="40">R</text>
		</g>
		<g>
			<circle cx="271.401" cy="48.788" r="27.273"/>
			<rect x="256.968" y="35.151" fill="none" width="32.38" height="32.824"/>
			<text transform="matrix(1 0 0 1 256.9683 62.0308)" fill="#FFFFFF" font-family="'SitkaBanner'" font-size="40">O</text>
		</g>
		<g>
			<circle fill="#23D160" cx="347.401" cy="48.788" r="27.273"/>
			<rect x="335.364" y="35.606" fill="none" width="23.047" height="36.363"/>
			<text transform="matrix(1 0 0 1 335.3638 62.4858)" fill="#FFFFFF" font-family="'SitkaBanner'" font-size="40">S</text>
		</g>
		<g>
			<circle fill="#23D160" cx="408.401" cy="48.788" r="27.273"/>
			<rect x="398.363" y="35.606" fill="none" width="23.048" height="36.363"/>
			<text transform="matrix(1 0 0 1 398.3638 62.4858)" fill="#FFFFFF" font-family="'SitkaBanner'" font-size="40">P</text>
		</g>
		<g>
			<circle fill="#23D160" cx="468.401" cy="48.788" r="27.272"/>
			<rect x="457.363" y="35.606" fill="none" width="23.048" height="36.363"/>
			<text transform="matrix(1 0 0 1 457.3633 62.4858)" fill="#FFFFFF" font-family="'SitkaBanner'" font-size="40">R</text>
		</g>
		<g>
			<circle fill="#23D160" cx="529.401" cy="48.788" r="27.272"/>
			<rect x="521.363" y="35.606" fill="none" width="23.048" height="36.363"/>
			<text transform="matrix(1 0 0 1 521.3633 62.4858)" fill="#FFFFFF" font-family="'SitkaBanner'" font-size="40">I</text>
		</g>
		<g>
			<circle fill="#23D160" cx="589.401" cy="48.788" r="27.272"/>
			<rect x="576.363" y="35.606" fill="none" width="33.311" height="43.228"/>
			<text transform="matrix(1 0 0 1 576.3633 62.4858)" fill="#FFFFFF" font-family="'SitkaBanner'" font-size="40">N</text>
		</g>
		<g>
			<circle fill="#23D160" cx="650.401" cy="48.788" r="27.272"/>
			<rect x="637.363" y="35.606" fill="none" width="33.311" height="43.228"/>
			<text transform="matrix(1 0 0 1 637.3633 62.4858)" fill="#FFFFFF" font-family="'SitkaBanner'" font-size="40">T</text>
		</g>
		<rect x="291.349" y="48.788" fill="none" width="32.38" height="32.823"/>
	</g>
</g>
<g>
	<line fill="none" stroke="#C1272D" stroke-miterlimit="10" x1="0" y1="36.833" x2="803" y2="36.833"/>
	<line fill="none" stroke="#C1272D" stroke-miterlimit="10" x1="0" y1="63.833" x2="800" y2="63.833"/>
</g>
</svg>
